<svg width="3043" height="223" viewBox="0 0 3043 223" fill="none" xmlns="http://www.w3.org/2000/svg">
<path d="M2959.99 222.799C2941.59 222.799 2925.79 219.699 2912.59 213.499C2899.39 207.299 2889.09 198.599 2881.69 187.399C2874.29 176.199 2870.09 162.999 2869.09 147.799L2914.99 145.699C2916.19 154.099 2918.59 161.299 2922.19 167.299C2925.99 173.099 2930.99 177.499 2937.19 180.499C2943.59 183.499 2951.39 184.999 2960.59 184.999C2968.19 184.999 2974.59 184.099 2979.79 182.299C2985.19 180.499 2989.29 177.799 2992.09 174.199C2994.89 170.399 2996.29 165.799 2996.29 160.399C2996.29 155.399 2995.09 151.099 2992.69 147.499C2990.29 143.699 2985.69 140.299 2978.89 137.299C2972.09 134.099 2962.09 130.999 2948.89 127.999C2930.69 123.799 2915.99 119.099 2904.79 113.899C2893.79 108.699 2885.79 102.199 2880.79 94.3992C2875.79 86.3992 2873.29 76.3992 2873.29 64.3992C2873.29 51.5992 2876.39 40.3992 2882.59 30.7992C2888.99 21.1992 2898.19 13.6992 2910.19 8.2992C2922.19 2.89921 2936.49 0.199219 2953.09 0.199219C2970.69 0.199219 2985.59 3.29921 2997.79 9.49921C3009.99 15.6992 3019.49 24.1992 3026.29 34.9992C3033.29 45.7992 3037.49 58.1992 3038.89 72.1992L2993.29 74.5992C2992.69 67.1992 2990.69 60.7992 2987.29 55.3992C2983.89 49.7992 2979.29 45.4992 2973.49 42.4992C2967.69 39.4992 2960.69 37.9992 2952.49 37.9992C2942.09 37.9992 2933.89 40.2992 2927.89 44.8992C2922.09 49.4992 2919.19 55.4992 2919.19 62.8992C2919.19 68.0992 2920.49 72.4992 2923.09 76.0992C2925.89 79.4992 2930.39 82.4992 2936.59 85.0992C2942.99 87.6992 2951.99 90.1992 2963.59 92.5992C2983.39 96.5992 2998.99 101.699 3010.39 107.899C3021.99 113.899 3030.19 121.099 3034.99 129.499C3039.79 137.899 3042.19 147.499 3042.19 158.299C3042.19 171.499 3038.79 182.999 3031.99 192.799C3025.39 202.399 3015.89 209.799 3003.49 214.999C2991.29 220.199 2976.79 222.799 2959.99 222.799Z" fill="#33483E"/>
<path d="M2689.07 218V5H2837.27V43.4H2734.67V92.3H2833.67V130.1H2734.67V179.6H2839.67V218H2689.07Z" fill="#33483E"/>
<path d="M2556.38 222.799C2535.78 222.799 2518.18 218.099 2503.58 208.699C2488.98 199.299 2477.68 186.299 2469.68 169.699C2461.88 152.899 2457.98 133.599 2457.98 111.799C2457.98 90.3992 2461.98 71.2992 2469.98 54.4992C2477.98 37.6992 2489.48 24.4992 2504.48 14.8992C2519.68 5.09921 2537.88 0.199219 2559.08 0.199219C2577.48 0.199219 2592.98 3.29921 2605.58 9.49921C2618.38 15.4992 2628.58 24.0992 2636.18 35.2992C2643.78 46.4992 2649.08 59.6992 2652.08 74.8992L2604.98 76.9992C2602.78 65.1992 2598.08 55.8992 2590.88 49.0992C2583.88 42.0992 2573.38 38.5992 2559.38 38.5992C2547.18 38.5992 2536.98 41.7992 2528.78 48.1992C2520.78 54.5992 2514.78 63.2992 2510.78 74.2992C2506.98 85.2992 2505.08 97.7992 2505.08 111.799C2505.08 125.999 2506.98 138.599 2510.78 149.599C2514.78 160.399 2520.78 168.899 2528.78 175.099C2536.98 181.299 2547.48 184.399 2560.28 184.399C2569.68 184.399 2577.78 182.499 2584.58 178.699C2591.58 174.899 2596.98 169.699 2600.78 163.099C2604.78 156.499 2607.18 148.999 2607.98 140.599H2559.38V107.299H2652.68V217.999H2624.48L2622.08 172.399L2627.48 174.799C2625.48 184.199 2621.08 192.499 2614.28 199.699C2607.48 206.899 2599.08 212.599 2589.08 216.799C2579.28 220.799 2568.38 222.799 2556.38 222.799Z" fill="#33483E"/>
<path d="M2244.54 218L2321.34 5H2375.34L2452.14 218H2404.74L2389.14 172.7H2307.24L2291.64 218H2244.54ZM2320.14 135.2H2376.54L2348.34 53L2320.14 135.2Z" fill="#33483E"/>
<path d="M2054.2 218V5H2099.8V98L2177.2 5H2230.3L2152 98.9L2235.1 218H2183.2L2122 129.5L2099.8 155.3V218H2054.2Z" fill="#33483E"/>
<path d="M1925.95 222.799C1906.55 222.799 1889.25 218.399 1874.05 209.599C1859.05 200.799 1847.25 188.099 1838.65 171.499C1830.25 154.899 1826.05 134.999 1826.05 111.799C1826.05 89.1992 1830.15 69.5992 1838.35 52.9992C1846.55 36.1992 1858.25 23.1992 1873.45 13.9992C1888.65 4.79922 1906.45 0.199219 1926.85 0.199219C1954.65 0.199219 1976.25 7.09922 1991.65 20.8992C2007.25 34.4992 2017.25 53.9992 2021.65 79.3992L1974.25 81.1992C1971.85 67.7992 1966.65 57.3992 1958.65 49.9992C1950.65 42.3992 1940.05 38.5992 1926.85 38.5992C1915.45 38.5992 1905.75 41.5992 1897.75 47.5992C1889.75 53.5992 1883.65 62.0992 1879.45 73.0992C1875.25 84.0992 1873.15 96.9992 1873.15 111.799C1873.15 126.799 1875.25 139.799 1879.45 150.799C1883.85 161.599 1890.05 169.899 1898.05 175.699C1906.05 181.499 1915.55 184.399 1926.55 184.399C1940.95 184.399 1952.05 180.399 1959.85 172.399C1967.85 164.199 1972.85 152.899 1974.85 138.499L2022.55 140.299C2019.75 157.699 2014.25 172.499 2006.05 184.699C1997.85 196.899 1987.05 206.299 1973.65 212.899C1960.45 219.499 1944.55 222.799 1925.95 222.799Z" fill="#33483E"/>
<path d="M1612.61 218L1689.41 5H1743.41L1820.21 218H1772.81L1757.21 172.7H1675.31L1659.71 218H1612.61ZM1688.21 135.2H1744.61L1716.41 53L1688.21 135.2Z" fill="#33483E"/>
<path d="M1452.74 218V5H1537.94C1563.54 5 1583.54 11.2 1597.94 23.6C1612.54 36 1619.84 53 1619.84 74.6C1619.84 88.8 1616.54 101.2 1609.94 111.8C1603.54 122.2 1594.14 130.3 1581.74 136.1C1569.54 141.7 1554.94 144.5 1537.94 144.5H1498.34V218H1452.74ZM1498.34 106.1H1535.24C1547.24 106.1 1556.54 103.5 1563.14 98.3C1569.74 92.9 1573.04 85 1573.04 74.6C1573.04 64.4 1569.74 56.7 1563.14 51.5C1556.74 46.1 1547.44 43.4 1535.24 43.4H1498.34V106.1Z" fill="#33483E"/>
<path d="M1197.86 218V5H1346.06V43.4H1243.46V92.3H1342.46V130.1H1243.46V179.6H1348.46V218H1197.86Z" fill="#33483E"/>
<path d="M988.676 218V5H1081.98C1097.58 5 1111.08 7.60001 1122.48 12.8C1134.08 18 1142.98 25.4 1149.18 35C1155.38 44.4 1158.48 55.6 1158.48 68.6C1158.48 78.4 1156.38 87.1 1152.18 94.7C1148.18 102.3 1142.58 108.5 1135.38 113.3C1128.38 118.1 1120.28 121.1 1111.08 122.3L1110.18 119.6C1124.38 119.6 1135.18 122.7 1142.58 128.9C1149.98 134.9 1154.18 144.2 1155.18 156.8L1160.58 218H1114.08L1110.18 164C1109.58 155.8 1106.98 149.8 1102.38 146C1097.98 142 1090.38 140 1079.58 140H1034.28V218H988.676ZM1034.28 101.9H1076.88C1087.88 101.9 1096.38 99.4 1102.38 94.4C1108.58 89.2 1111.68 81.9 1111.68 72.5C1111.68 62.9 1108.58 55.7 1102.38 50.9C1096.18 45.9 1087.18 43.4 1075.38 43.4H1034.28V101.9Z" fill="#33483E"/>
<path d="M902.836 218V5H948.436V218H902.836Z" fill="#33483E"/>
<path d="M690.727 218V5H736.327V106.1L716.227 91.7H837.427L817.027 106.1V5H862.627V218H817.027V115.7L837.427 130.1H716.227L736.327 115.7V218H690.727Z" fill="#33483E"/>
<path d="M413.285 218V5H506.585C522.185 5 535.685 7.60001 547.085 12.8C558.685 18 567.585 25.4 573.785 35C579.985 44.4 583.085 55.6 583.085 68.6C583.085 78.4 580.985 87.1 576.785 94.7C572.785 102.3 567.185 108.5 559.985 113.3C552.985 118.1 544.885 121.1 535.685 122.3L534.785 119.6C548.985 119.6 559.785 122.7 567.185 128.9C574.585 134.9 578.785 144.2 579.785 156.8L585.185 218H538.685L534.785 164C534.185 155.8 531.585 149.8 526.985 146C522.585 142 514.985 140 504.185 140H458.885V218H413.285ZM458.885 101.9H501.485C512.485 101.9 520.985 99.4 526.985 94.4C533.185 89.2 536.285 81.9 536.285 72.5C536.285 62.9 533.185 55.7 526.985 50.9C520.785 45.9 511.785 43.4 499.985 43.4H458.885V101.9Z" fill="#33483E"/>
<path d="M185.262 218L262.062 5H316.062L392.862 218H345.462L329.862 172.7H247.962L232.362 218H185.262ZM260.862 135.2H317.262L289.062 53L260.862 135.2Z" fill="#33483E"/>
<path d="M0.199219 218V5H82.9992C109.399 5 129.599 9.7 143.599 19.1C157.599 28.3 164.599 42.9 164.599 62.9C164.599 71.7 162.799 79.4 159.199 86C155.599 92.4 150.299 97.5 143.299 101.3C136.499 105.1 128.199 107.4 118.399 108.2V107.6C136.199 108.8 149.799 114 159.199 123.2C168.799 132.2 173.599 144.2 173.599 159.2C173.599 179 166.599 193.8 152.599 203.6C138.799 213.2 118.999 218 93.1992 218H0.199219ZM45.7992 180.8H91.0992C102.099 180.8 110.899 178.6 117.499 174.2C124.299 169.6 127.699 162.8 127.699 153.8C127.699 144.8 124.299 138 117.499 133.4C110.899 128.6 102.099 126.2 91.0992 126.2H45.7992V180.8ZM45.7992 93.2H81.7992C92.9992 93.2 101.899 91 108.499 86.6C115.299 82.2 118.699 75.9 118.699 67.7C118.699 58.9 115.399 52.5 108.799 48.5C102.399 44.3 93.3992 42.2 81.7992 42.2H45.7992V93.2Z" fill="#33483E"/>
</svg>
