<svg width="2933" height="223" viewBox="0 0 2933 223" fill="none" xmlns="http://www.w3.org/2000/svg">
<path d="M2781.68 218V5H2929.88V43.4H2827.28V92.3H2926.28V130.1H2827.28V179.6H2932.28V218H2781.68Z" fill="#33483E"/>
<path d="M2572.5 218V5H2665.8C2681.4 5 2694.9 7.60001 2706.3 12.8C2717.9 18 2726.8 25.4 2733 35C2739.2 44.4 2742.3 55.6 2742.3 68.6C2742.3 78.4 2740.2 87.1 2736 94.7C2732 102.3 2726.4 108.5 2719.2 113.3C2712.2 118.1 2704.1 121.1 2694.9 122.3L2694 119.6C2708.2 119.6 2719 122.7 2726.4 128.9C2733.8 134.9 2738 144.2 2739 156.8L2744.4 218H2697.9L2694 164C2693.4 155.8 2690.8 149.8 2686.2 146C2681.8 142 2674.2 140 2663.4 140H2618.1V218H2572.5ZM2618.1 101.9H2660.7C2671.7 101.9 2680.2 99.4 2686.2 94.4C2692.4 89.2 2695.5 81.9 2695.5 72.5C2695.5 62.9 2692.4 55.7 2686.2 50.9C2680 45.9 2671 43.4 2659.2 43.4H2618.1V101.9Z" fill="#33483E"/>
<path d="M2486.66 218V5H2532.26V218H2486.66Z" fill="#33483E"/>
<path d="M2274.55 218V5H2320.15V106.1L2300.05 91.7H2421.25L2400.85 106.1V5H2446.45V218H2400.85V115.7L2421.25 130.1H2300.05L2320.15 115.7V218H2274.55Z" fill="#33483E"/>
<path d="M1997.11 218V5H2090.41C2106.01 5 2119.51 7.60001 2130.91 12.8C2142.51 18 2151.41 25.4 2157.61 35C2163.81 44.4 2166.91 55.6 2166.91 68.6C2166.91 78.4 2164.81 87.1 2160.61 94.7C2156.61 102.3 2151.01 108.5 2143.81 113.3C2136.81 118.1 2128.71 121.1 2119.51 122.3L2118.61 119.6C2132.81 119.6 2143.61 122.7 2151.01 128.9C2158.41 134.9 2162.61 144.2 2163.61 156.8L2169.01 218H2122.51L2118.61 164C2118.01 155.8 2115.41 149.8 2110.81 146C2106.41 142 2098.81 140 2088.01 140H2042.71V218H1997.11ZM2042.71 101.9H2085.31C2096.31 101.9 2104.81 99.4 2110.81 94.4C2117.01 89.2 2120.11 81.9 2120.11 72.5C2120.11 62.9 2117.01 55.7 2110.81 50.9C2104.61 45.9 2095.61 43.4 2083.81 43.4H2042.71V101.9Z" fill="#33483E"/>
<path d="M1769.09 218L1845.89 5H1899.89L1976.69 218H1929.29L1913.69 172.7H1831.79L1816.19 218H1769.09ZM1844.69 135.2H1901.09L1872.89 53L1844.69 135.2Z" fill="#33483E"/>
<path d="M1584.03 218V5H1666.83C1693.23 5 1713.43 9.7 1727.43 19.1C1741.43 28.3 1748.43 42.9 1748.43 62.9C1748.43 71.7 1746.63 79.4 1743.03 86C1739.43 92.4 1734.13 97.5 1727.13 101.3C1720.33 105.1 1712.03 107.4 1702.23 108.2V107.6C1720.03 108.8 1733.63 114 1743.03 123.2C1752.63 132.2 1757.43 144.2 1757.43 159.2C1757.43 179 1750.43 193.8 1736.43 203.6C1722.63 213.2 1702.83 218 1677.03 218H1584.03ZM1629.63 180.8H1674.93C1685.93 180.8 1694.73 178.6 1701.33 174.2C1708.13 169.6 1711.53 162.8 1711.53 153.8C1711.53 144.8 1708.13 138 1701.33 133.4C1694.73 128.6 1685.93 126.2 1674.93 126.2H1629.63V180.8ZM1629.63 93.2H1665.63C1676.83 93.2 1685.73 91 1692.33 86.6C1699.13 82.2 1702.53 75.9 1702.53 67.7C1702.53 58.9 1699.23 52.5 1692.63 48.5C1686.23 44.3 1677.23 42.2 1665.63 42.2H1629.63V93.2Z" fill="#33483E"/>
<path d="M1339.11 218V5H1384.71V205.7L1359.51 179.6H1482.81V218H1339.11Z" fill="#33483E"/>
<path d="M1249.16 218V5H1294.76V218H1249.16Z" fill="#33483E"/>
<path d="M1021.14 218L1097.94 5H1151.94L1228.74 218H1181.34L1165.74 172.7H1083.84L1068.24 218H1021.14ZM1096.74 135.2H1153.14L1124.94 53L1096.74 135.2Z" fill="#33483E"/>
<path d="M932.635 218V43.4H869.035V5H1042.44V43.4H978.535V218H932.635Z" fill="#33483E"/>
<path d="M681.977 218V5H727.577V98L804.977 5H858.077L779.777 98.9L862.877 218H810.977L749.777 129.5L727.577 155.3V218H681.977Z" fill="#33483E"/>
<path d="M553.722 222.799C534.322 222.799 517.022 218.399 501.822 209.599C486.822 200.799 475.022 188.099 466.422 171.499C458.022 154.899 453.822 134.999 453.822 111.799C453.822 89.1992 457.922 69.5992 466.122 52.9992C474.322 36.1992 486.022 23.1992 501.222 13.9992C516.422 4.79922 534.222 0.199219 554.622 0.199219C582.422 0.199219 604.022 7.09922 619.422 20.8992C635.022 34.4992 645.022 53.9992 649.422 79.3992L602.022 81.1992C599.622 67.7992 594.422 57.3992 586.422 49.9992C578.422 42.3992 567.822 38.5992 554.622 38.5992C543.222 38.5992 533.522 41.5992 525.522 47.5992C517.522 53.5992 511.422 62.0992 507.222 73.0992C503.022 84.0992 500.922 96.9992 500.922 111.799C500.922 126.799 503.022 139.799 507.222 150.799C511.622 161.599 517.822 169.899 525.822 175.699C533.822 181.499 543.322 184.399 554.322 184.399C568.722 184.399 579.822 180.399 587.622 172.399C595.622 164.199 600.622 152.899 602.622 138.499L650.322 140.299C647.522 157.699 642.022 172.499 633.822 184.699C625.622 196.899 614.822 206.299 601.422 212.899C588.222 219.499 572.322 222.799 553.722 222.799Z" fill="#33483E"/>
<path d="M324.712 222.799C303.112 222.799 284.512 218.299 268.912 209.299C253.512 200.299 241.612 187.499 233.212 170.899C225.012 154.299 220.912 134.599 220.912 111.799C220.912 88.9992 225.012 69.2992 233.212 52.6992C241.612 35.8992 253.512 22.9992 268.912 13.9992C284.512 4.79922 303.112 0.199219 324.712 0.199219C346.312 0.199219 364.812 4.79922 380.212 13.9992C395.812 22.9992 407.712 35.8992 415.912 52.6992C424.312 69.2992 428.512 88.9992 428.512 111.799C428.512 134.599 424.312 154.299 415.912 170.899C407.712 187.499 395.812 200.299 380.212 209.299C364.812 218.299 346.312 222.799 324.712 222.799ZM324.412 184.399C336.412 184.399 346.612 181.599 355.012 175.999C363.612 170.199 370.112 161.899 374.512 151.099C379.112 140.299 381.412 127.199 381.412 111.799C381.412 96.3992 379.112 83.2992 374.512 72.4992C370.112 61.4992 363.612 53.0992 355.012 47.2992C346.612 41.4992 336.412 38.5992 324.412 38.5992C312.612 38.5992 302.512 41.4992 294.112 47.2992C285.712 53.0992 279.212 61.4992 274.612 72.4992C270.212 83.2992 268.012 96.3992 268.012 111.799C268.012 127.199 270.212 140.299 274.612 151.099C279.212 161.899 285.712 170.199 294.112 175.999C302.712 181.599 312.812 184.399 324.412 184.399Z" fill="#33483E"/>
<path d="M100.5 222.799C81.0996 222.799 63.7996 218.399 48.5996 209.599C33.5996 200.799 21.7996 188.099 13.1996 171.499C4.79961 154.899 0.599609 134.999 0.599609 111.799C0.599609 89.1992 4.69961 69.5992 12.8996 52.9992C21.0996 36.1992 32.7996 23.1992 47.9996 13.9992C63.1996 4.79922 80.9996 0.199219 101.4 0.199219C129.2 0.199219 150.8 7.09922 166.2 20.8992C181.8 34.4992 191.8 53.9992 196.2 79.3992L148.8 81.1992C146.4 67.7992 141.2 57.3992 133.2 49.9992C125.2 42.3992 114.6 38.5992 101.4 38.5992C89.9996 38.5992 80.2996 41.5992 72.2996 47.5992C64.2996 53.5992 58.1996 62.0992 53.9996 73.0992C49.7996 84.0992 47.6996 96.9992 47.6996 111.799C47.6996 126.799 49.7996 139.799 53.9996 150.799C58.3996 161.599 64.5996 169.899 72.5996 175.699C80.5996 181.499 90.0996 184.399 101.1 184.399C115.5 184.399 126.6 180.399 134.4 172.399C142.4 164.199 147.4 152.899 149.4 138.499L197.1 140.299C194.3 157.699 188.8 172.499 180.6 184.699C172.4 196.899 161.6 206.299 148.2 212.899C135 219.499 119.1 222.799 100.5 222.799Z" fill="#33483E"/>
</svg>
