<svg width="840" height="777" viewBox="0 0 840 777" fill="none" xmlns="http://www.w3.org/2000/svg">
<path d="M90.5269 129.342C138.093 148.689 218.644 171.014 294.064 192.256C362.156 211.455 410.684 236.561 410.684 297.58C410.684 325.295 407.329 408.811 406.12 507.611C416.235 505.052 425.635 503.845 435.627 504.732L435.602 501.433C434.665 395.076 431.186 303.438 431.211 274.024C431.285 211.775 476.038 219.676 546.351 200.28C578.349 191.444 724.772 158.781 773.547 148.517C814.452 139.902 798.514 122.451 785.735 108.716C784.896 111.35 782.108 113.688 776.286 115.436C739.032 126.586 511.91 170.473 457.016 185.807C418.307 196.613 368.423 176.774 308.817 152.603C249.212 128.456 98.3723 93.1352 68.5696 81.985C63.2816 80.0843 58.4798 77.0417 54.5071 73.0747C52.188 74.3547 49.8195 75.61 47.6485 77.0376C49.2768 76.9638 50.609 76.7669 52.336 76.7422C64.1041 76.5453 47.5251 111.867 90.5269 129.342Z" fill="white"/>
<path d="M0.452618 212.858C2.82105 275.698 9.23554 435.123 3.38848 506.775C-0.484883 554.107 9.30956 589.502 27.9609 615.15C32.9938 606.954 43.7504 600.185 61.5137 597.034C154.08 580.567 305.215 538.33 366.054 519.845C382.189 514.946 394.673 510.54 406.145 507.636C407.354 408.835 410.709 325.32 410.709 297.604C410.709 236.586 362.181 211.48 294.088 192.281C218.644 171.014 138.093 148.689 90.5269 129.342C47.5251 111.867 64.1041 76.5453 52.336 76.7176C50.6337 76.7422 49.3014 76.9638 47.6485 77.013C7.45922 103.572 -1.76778 154.67 0.452618 212.858Z" fill="white"/>
<path d="M794.838 629.525C805.323 631.912 816.203 637.131 826.121 643.875C836.927 621.55 834.534 592.628 832.906 559.424C829.97 499.464 834.361 310.847 838.778 224.574C842.429 152.972 818.498 119.546 785.315 103.793C785.725 104.539 785.978 105.36 786.058 106.206C786.139 107.053 786.045 107.907 785.784 108.716C798.539 122.451 814.476 139.902 773.596 148.517C724.797 158.781 578.398 191.468 546.4 200.28C476.087 219.676 431.334 211.775 431.26 274.024C431.235 303.438 434.714 395.101 435.651 501.433L435.676 504.732C447.271 505.765 459.854 509.507 476.087 517.679C509.813 534.687 744.583 618.079 794.838 629.525Z" fill="white"/>
<path d="M308.842 152.603C368.447 176.749 418.307 196.613 457.041 185.807C511.934 170.497 739.057 126.586 776.31 115.436C782.157 113.688 784.945 111.35 785.759 108.716C783.281 106.146 780.926 103.46 778.703 100.667C773.915 98.7701 769.013 97.1752 764.024 95.892C701.014 79.7944 555.898 34.4799 494.344 12.5488C445.569 -4.82876 383.645 -1.99814 331.663 9.61969C273.932 22.5175 156.966 51.6113 98.619 59.3401C81.1025 61.6538 66.6453 66.4535 54.5071 73.0993C57.9117 76.5207 62.4018 79.6959 68.5696 82.0096C98.397 93.1352 249.236 128.432 308.842 152.603Z" fill="white"/>
<path d="M435.627 504.732C425.698 503.996 415.717 504.97 406.12 507.611L405.972 519.746C404.788 635.826 410.758 732.51 409.105 748.189C407.97 758.97 401.334 768.225 391.416 774.576C411.671 777.037 431.901 776.742 451.219 773.542C440.092 764.065 433.702 748.977 432.197 733.962C430.618 717.84 436.54 621.821 435.627 504.732Z" fill="white"/>
<path d="M409.105 748.189C410.758 732.51 404.763 635.851 405.972 519.746L406.12 507.611C394.648 510.491 382.164 514.922 366.029 519.82C305.19 538.305 154.055 580.543 61.489 597.01C43.7504 600.16 32.9692 606.954 27.9363 615.126C41.3632 633.504 59.788 647.657 81.0285 655.911C132.32 676.39 248.101 717.323 321.399 753.875C343.603 764.951 367.485 771.622 391.416 774.551C401.358 768.225 407.97 758.97 409.105 748.189ZM766.96 683.7C800.192 675.553 817.437 661.843 826.121 643.875C816.203 637.131 805.323 631.912 794.838 629.525C744.583 618.079 509.788 534.687 476.038 517.679C459.804 509.507 447.222 505.741 435.627 504.732C436.54 621.845 430.618 717.84 432.222 733.962C433.727 749.001 440.117 764.065 451.243 773.542C463.46 771.605 475.452 768.455 487.041 764.139C536.852 745.113 689.27 702.702 766.96 683.7Z" fill="white"/>
<path d="M162.345 405.291C65.8558 487.059 31.0448 644.539 33.9067 573.257C36.2751 514.405 33.4873 339.743 33.7586 267.083C33.9807 205.769 44.0218 153.021 125.659 190.902C188.274 219.947 303.291 242.936 357.172 279.267C391.983 302.749 296.383 291.697 162.345 405.291Z" fill="white"/>
<path d="M719.863 325.27C785.241 369.403 807.914 462.789 806.138 418.336C804.657 381.637 806.286 296.767 806.138 251.477C805.99 213.252 810.825 180.737 756.869 196.219C710.488 209.511 630.455 217.067 596.852 239.712C575.142 254.333 631.589 265.704 719.863 325.27Z" fill="white"/>
<path d="M123.41 154.583C166.254 172.05 238.81 192.206 306.743 211.383C368.077 228.717 411.788 251.383 411.788 306.472C411.788 331.494 408.766 406.894 407.677 496.094C416.788 493.783 425.254 492.694 434.254 493.494L434.232 490.517C433.388 394.494 430.254 311.761 430.277 285.206C430.343 229.006 470.654 236.139 533.988 218.628C562.81 210.65 694.699 181.161 738.632 171.894C775.477 164.117 761.121 148.361 749.61 135.961C748.854 138.339 746.343 140.45 741.099 142.028C707.543 152.094 502.966 191.717 453.521 205.561C418.654 215.317 373.721 197.406 320.032 175.583C266.343 153.783 130.477 121.894 103.632 111.828C98.8691 110.112 94.5439 107.365 90.9655 103.783C88.8766 104.939 86.7433 106.072 84.7877 107.361C86.2544 107.294 87.4544 107.117 89.01 107.094C99.61 106.917 84.6766 138.806 123.41 154.583Z" fill="#F5F8FA"/>
<path d="M42.2766 229.983C44.41 286.717 50.1877 430.65 44.9211 495.339C41.4322 538.072 50.2544 570.028 67.0544 593.183C71.5877 585.783 81.2766 579.672 97.2766 576.828C180.654 561.961 316.788 523.828 371.588 507.139C386.121 502.717 397.365 498.739 407.699 496.117C408.788 406.917 411.81 331.517 411.81 306.494C411.81 251.406 368.099 228.739 306.766 211.406C238.81 192.206 166.254 172.05 123.41 154.583C84.6766 138.806 99.61 106.917 89.01 107.072C87.4766 107.094 86.2766 107.294 84.7877 107.339C48.5877 131.317 40.2766 177.45 42.2766 229.983Z" fill="#ADD3E0"/>
<path d="M757.81 606.161C767.254 608.317 777.054 613.028 785.988 619.117C795.721 598.961 793.565 572.85 792.099 542.872C789.454 488.739 793.41 318.45 797.388 240.561C800.677 175.917 779.121 145.739 749.232 131.517C749.601 132.19 749.829 132.931 749.901 133.695C749.974 134.46 749.89 135.231 749.654 135.961C761.143 148.361 775.499 164.117 738.677 171.894C694.721 181.161 562.854 210.672 534.032 218.628C470.699 236.139 430.388 229.006 430.321 285.206C430.299 311.761 433.432 394.517 434.277 490.517L434.299 493.494C444.743 494.428 456.077 497.806 470.699 505.183C501.077 520.539 712.543 595.828 757.81 606.161Z" fill="#C1E1EA"/>
<path d="M320.054 175.583C373.743 197.383 418.654 215.317 453.543 205.561C502.988 191.739 707.565 152.094 741.121 142.028C746.388 140.45 748.899 138.339 749.632 135.961C747.399 133.641 745.279 131.216 743.277 128.694C738.964 126.982 734.548 125.542 730.054 124.383C673.299 109.85 542.588 68.9389 487.143 49.1389C443.21 33.45 387.432 36.0056 340.61 46.4945C288.61 58.1389 183.254 84.4056 130.699 91.3834C114.921 93.4722 101.899 97.8056 90.9655 103.806C94.0322 106.894 98.0766 109.761 103.632 111.85C130.499 121.894 266.365 153.761 320.054 175.583Z" fill="#D2ECF3"/>
<path d="M434.254 493.494C425.312 492.83 416.321 493.709 407.677 496.094L407.543 507.05C406.477 611.85 411.854 699.139 410.365 713.294C409.343 723.028 403.366 731.383 394.432 737.117C412.677 739.339 430.899 739.072 448.299 736.183C438.277 727.628 432.521 714.006 431.165 700.45C429.743 685.894 435.077 599.206 434.254 493.494Z" fill="#CFE1EA"/>
<path d="M410.365 713.294C411.854 699.139 406.454 611.872 407.543 507.05L407.677 496.094C397.343 498.694 386.099 502.694 371.565 507.117C316.765 523.806 180.632 561.939 97.2544 576.806C81.2766 579.65 71.5655 585.783 67.0322 593.161C79.1264 609.753 95.7222 622.532 114.854 629.983C161.054 648.472 265.343 685.428 331.365 718.428C351.365 728.428 372.877 734.45 394.432 737.094C403.388 731.383 409.343 723.028 410.365 713.294ZM732.699 655.072C762.632 647.717 778.166 635.339 785.988 619.117C777.054 613.028 767.254 608.317 757.81 606.161C712.543 595.828 501.054 520.539 470.654 505.183C456.032 497.806 444.699 494.406 434.254 493.494C435.077 599.228 429.743 685.894 431.188 700.45C432.543 714.028 438.299 727.628 448.321 736.183C459.325 734.434 470.127 731.591 480.566 727.694C525.432 710.517 662.721 672.228 732.699 655.072Z" fill="#9BC2D4"/>
<path d="M188.099 403.717C101.188 477.539 69.8322 619.717 72.41 555.361C74.5433 502.228 72.0322 344.539 72.2766 278.939C72.4766 223.583 81.5211 175.961 155.054 210.161C211.454 236.383 315.054 257.139 363.588 289.939C394.943 311.139 308.832 301.161 188.099 403.717Z" fill="#C1E1EA"/>
<path d="M690.277 331.472C749.166 371.317 769.588 455.628 767.988 415.494C766.654 382.361 768.121 305.739 767.988 264.85C767.854 230.339 772.21 200.983 723.61 214.961C681.832 226.961 609.743 233.783 579.477 254.228C559.921 267.428 610.766 277.694 690.277 331.472Z" fill="#D2ECF3"/>
</svg>
