<svg width="2996" height="223" viewBox="0 0 2996 223" fill="none" xmlns="http://www.w3.org/2000/svg">
<path d="M2913.37 222.799C2894.97 222.799 2879.17 219.699 2865.97 213.499C2852.77 207.299 2842.47 198.599 2835.07 187.399C2827.67 176.199 2823.47 162.999 2822.47 147.799L2868.37 145.699C2869.57 154.099 2871.97 161.299 2875.57 167.299C2879.37 173.099 2884.37 177.499 2890.57 180.499C2896.97 183.499 2904.77 184.999 2913.97 184.999C2921.57 184.999 2927.97 184.099 2933.17 182.299C2938.57 180.499 2942.67 177.799 2945.47 174.199C2948.27 170.399 2949.67 165.799 2949.67 160.399C2949.67 155.399 2948.47 151.099 2946.07 147.499C2943.67 143.699 2939.07 140.299 2932.27 137.299C2925.47 134.099 2915.47 130.999 2902.27 127.999C2884.07 123.799 2869.37 119.099 2858.17 113.899C2847.17 108.699 2839.17 102.199 2834.17 94.3992C2829.17 86.3992 2826.67 76.3992 2826.67 64.3992C2826.67 51.5992 2829.77 40.3992 2835.97 30.7992C2842.37 21.1992 2851.57 13.6992 2863.57 8.2992C2875.57 2.89921 2889.87 0.199219 2906.47 0.199219C2924.07 0.199219 2938.97 3.29921 2951.17 9.49921C2963.37 15.6992 2972.87 24.1992 2979.67 34.9992C2986.67 45.7992 2990.87 58.1992 2992.27 72.1992L2946.67 74.5992C2946.07 67.1992 2944.07 60.7992 2940.67 55.3992C2937.27 49.7992 2932.67 45.4992 2926.87 42.4992C2921.07 39.4992 2914.07 37.9992 2905.87 37.9992C2895.47 37.9992 2887.27 40.2992 2881.27 44.8992C2875.47 49.4992 2872.57 55.4992 2872.57 62.8992C2872.57 68.0992 2873.87 72.4992 2876.47 76.0992C2879.27 79.4992 2883.77 82.4992 2889.97 85.0992C2896.37 87.6992 2905.37 90.1992 2916.97 92.5992C2936.77 96.5992 2952.37 101.699 2963.77 107.899C2975.37 113.899 2983.57 121.099 2988.37 129.499C2993.17 137.899 2995.57 147.499 2995.57 158.299C2995.57 171.499 2992.17 182.999 2985.37 192.799C2978.77 202.399 2969.27 209.799 2956.87 214.999C2944.67 220.199 2930.17 222.799 2913.37 222.799Z" fill="#33483E"/>
<path d="M2706.2 218V43.4H2642.6V5H2816V43.4H2752.1V218H2706.2Z" fill="#33483E"/>
<path d="M2444.99 218V5H2495.39L2579.99 152V5H2625.59V218H2574.59L2490.59 76.1V218H2444.99Z" fill="#33483E"/>
<path d="M2260.13 218V5H2408.33V43.4H2305.73V92.3H2404.73V130.1H2305.73V179.6H2410.73V218H2260.13Z" fill="#33483E"/>
<path d="M2109.49 218L2032.69 5H2079.79L2136.49 166.7L2193.19 5H2240.29L2163.19 218H2109.49Z" fill="#33483E"/>
<path d="M1860.23 218V5H2008.43V43.4H1905.83V92.3H2004.83V130.1H1905.83V179.6H2010.83V218H1860.23Z" fill="#33483E"/>
<path d="M1582.79 218V5H1676.09C1691.69 5 1705.19 7.60001 1716.59 12.8C1728.19 18 1737.09 25.4 1743.29 35C1749.49 44.4 1752.59 55.6 1752.59 68.6C1752.59 78.4 1750.49 87.1 1746.29 94.7C1742.29 102.3 1736.69 108.5 1729.49 113.3C1722.49 118.1 1714.39 121.1 1705.19 122.3L1704.29 119.6C1718.49 119.6 1729.29 122.7 1736.69 128.9C1744.09 134.9 1748.29 144.2 1749.29 156.8L1754.69 218H1708.19L1704.29 164C1703.69 155.8 1701.09 149.8 1696.49 146C1692.09 142 1684.49 140 1673.69 140H1628.39V218H1582.79ZM1628.39 101.9H1670.99C1681.99 101.9 1690.49 99.4 1696.49 94.4C1702.69 89.2 1705.79 81.9 1705.79 72.5C1705.79 62.9 1702.69 55.7 1696.49 50.9C1690.29 45.9 1681.29 43.4 1669.49 43.4H1628.39V101.9Z" fill="#33483E"/>
<path d="M1354.76 218L1431.56 5H1485.56L1562.36 218H1514.96L1499.36 172.7H1417.46L1401.86 218H1354.76ZM1430.36 135.2H1486.76L1458.56 53L1430.36 135.2Z" fill="#33483E"/>
<path d="M1169.7 218V5H1252.5C1278.9 5 1299.1 9.7 1313.1 19.1C1327.1 28.3 1334.1 42.9 1334.1 62.9C1334.1 71.7 1332.3 79.4 1328.7 86C1325.1 92.4 1319.8 97.5 1312.8 101.3C1306 105.1 1297.7 107.4 1287.9 108.2V107.6C1305.7 108.8 1319.3 114 1328.7 123.2C1338.3 132.2 1343.1 144.2 1343.1 159.2C1343.1 179 1336.1 193.8 1322.1 203.6C1308.3 213.2 1288.5 218 1262.7 218H1169.7ZM1215.3 180.8H1260.6C1271.6 180.8 1280.4 178.6 1287 174.2C1293.8 169.6 1297.2 162.8 1297.2 153.8C1297.2 144.8 1293.8 138 1287 133.4C1280.4 128.6 1271.6 126.2 1260.6 126.2H1215.3V180.8ZM1215.3 93.2H1251.3C1262.5 93.2 1271.4 91 1278 86.6C1284.8 82.2 1288.2 75.9 1288.2 67.7C1288.2 58.9 1284.9 52.5 1278.3 48.5C1271.9 44.3 1262.9 42.2 1251.3 42.2H1215.3V93.2Z" fill="#33483E"/>
<path d="M865.797 218L942.597 5H996.597L1073.4 218H1026L1010.4 172.7H928.497L912.897 218H865.797ZM941.397 135.2H997.797L969.597 53L941.397 135.2Z" fill="#33483E"/>
<path d="M680.734 218V5H763.534C789.934 5 810.134 9.7 824.134 19.1C838.134 28.3 845.134 42.9 845.134 62.9C845.134 71.7 843.334 79.4 839.734 86C836.134 92.4 830.834 97.5 823.834 101.3C817.034 105.1 808.734 107.4 798.934 108.2V107.6C816.734 108.8 830.334 114 839.734 123.2C849.334 132.2 854.134 144.2 854.134 159.2C854.134 179 847.134 193.8 833.134 203.6C819.334 213.2 799.534 218 773.734 218H680.734ZM726.334 180.8H771.634C782.634 180.8 791.434 178.6 798.034 174.2C804.834 169.6 808.234 162.8 808.234 153.8C808.234 144.8 804.834 138 798.034 133.4C791.434 128.6 782.634 126.2 771.634 126.2H726.334V180.8ZM726.334 93.2H762.334C773.534 93.2 782.434 91 789.034 86.6C795.834 82.2 799.234 75.9 799.234 67.7C799.234 58.9 795.934 52.5 789.334 48.5C782.934 44.3 773.934 42.2 762.334 42.2H726.334V93.2Z" fill="#33483E"/>
<path d="M410.324 218V5H471.224L525.524 160.1L579.524 5H640.424V218H594.824V80L544.724 217.4H505.724L455.924 80V218H410.324Z" fill="#33483E"/>
<path d="M182.301 218L259.101 5H313.101L389.901 218H342.501L326.901 172.7H245.001L229.401 218H182.301ZM257.901 135.2H314.301L286.101 53L257.901 135.2Z" fill="#33483E"/>
<path d="M91.4996 222.799C73.0996 222.799 57.2996 219.699 44.0996 213.499C30.8996 207.299 20.5996 198.599 13.1996 187.399C5.79961 176.199 1.59961 162.999 0.599609 147.799L46.4996 145.699C47.6996 154.099 50.0996 161.299 53.6996 167.299C57.4996 173.099 62.4996 177.499 68.6996 180.499C75.0996 183.499 82.8996 184.999 92.0996 184.999C99.6996 184.999 106.1 184.099 111.3 182.299C116.7 180.499 120.8 177.799 123.6 174.199C126.4 170.399 127.8 165.799 127.8 160.399C127.8 155.399 126.6 151.099 124.2 147.499C121.8 143.699 117.2 140.299 110.4 137.299C103.6 134.099 93.5996 130.999 80.3996 127.999C62.1996 123.799 47.4996 119.099 36.2996 113.899C25.2996 108.699 17.2996 102.199 12.2996 94.3992C7.29961 86.3992 4.79961 76.3992 4.79961 64.3992C4.79961 51.5992 7.89961 40.3992 14.0996 30.7992C20.4996 21.1992 29.6996 13.6992 41.6996 8.2992C53.6996 2.89921 67.9996 0.199219 84.5996 0.199219C102.2 0.199219 117.1 3.29921 129.3 9.49921C141.5 15.6992 151 24.1992 157.8 34.9992C164.8 45.7992 169 58.1992 170.4 72.1992L124.8 74.5992C124.2 67.1992 122.2 60.7992 118.8 55.3992C115.4 49.7992 110.8 45.4992 105 42.4992C99.1996 39.4992 92.1996 37.9992 83.9996 37.9992C73.5996 37.9992 65.3996 40.2992 59.3996 44.8992C53.5996 49.4992 50.6996 55.4992 50.6996 62.8992C50.6996 68.0992 51.9996 72.4992 54.5996 76.0992C57.3996 79.4992 61.8996 82.4992 68.0996 85.0992C74.4996 87.6992 83.4996 90.1992 95.0996 92.5992C114.9 96.5992 130.5 101.699 141.9 107.899C153.5 113.899 161.7 121.099 166.5 129.499C171.3 137.899 173.7 147.499 173.7 158.299C173.7 171.499 170.3 182.999 163.5 192.799C156.9 202.399 147.4 209.799 135 214.999C122.8 220.199 108.3 222.799 91.4996 222.799Z" fill="#33483E"/>
</svg>
