<svg width="356" height="332" viewBox="0 0 356 332" fill="none" xmlns="http://www.w3.org/2000/svg">
<path d="M339.539 200.708H338.145C329.534 146.689 281.832 105.359 224.271 105.359C166.709 105.359 119.014 146.689 110.396 200.708H109.003C99.9475 200.708 92.5356 209.742 92.5356 220.78C92.5356 231.818 99.9475 240.852 109.003 240.852H111.311C121.989 292.388 168.505 331.188 224.271 331.188C280.036 331.188 326.545 292.395 337.23 240.852H339.539C348.594 240.852 356.005 231.818 356.005 220.78C356.005 209.742 348.594 200.708 339.539 200.708Z" fill="white"/>
<path d="M92.5355 220.782C92.5355 209.744 99.9474 200.71 109.002 200.71H110.396C119.007 146.692 166.709 105.362 224.27 105.362C226.42 105.362 228.521 105.535 230.635 105.646C227.508 71.0412 208.615 37.9896 176.478 17.8758C127.681 -12.659 65.3219 -2.92446 29.3652 38.3016L28.1865 37.5598C20.5112 32.7549 9.43855 36.4781 3.57981 45.8383C-2.27892 55.1984 -0.788239 66.7841 6.89399 71.589L8.84921 72.8162C-9.43421 122.175 9.41081 179.729 56.6898 209.314C68.1577 216.49 80.3813 221.399 92.8268 224.242C92.6603 223.112 92.5355 221.961 92.5355 220.782Z" fill="white"/>
<path d="M293.605 195.989C289.771 195.989 286.671 192.883 286.671 189.055C286.671 171.854 272.673 157.855 255.471 157.855C251.637 157.855 248.538 154.749 248.538 150.922C248.538 147.094 251.637 143.988 255.471 143.988C280.32 143.988 300.538 164.206 300.538 189.055C300.538 192.883 297.439 195.989 293.605 195.989Z" fill="white"/>
<path d="M73.8012 46.9237C72.4561 46.9237 71.0972 46.5354 69.8977 45.7173C66.7361 43.561 65.9179 39.2484 68.0812 36.0798C83.2584 13.8166 114.459 8.55414 137.637 24.3554C140.799 26.5117 141.617 30.8243 139.461 33.9928C137.297 37.1545 132.992 37.9726 129.823 35.8163C112.961 24.3138 90.4137 27.9538 79.5352 43.9007C78.197 45.8629 76.013 46.9237 73.8012 46.9237Z" fill="white"/>
<path d="M329.912 197.432H328.597C320.47 146.449 275.448 107.441 221.121 107.441C166.794 107.441 121.779 146.449 113.645 197.432H112.33C103.783 197.432 96.7881 205.959 96.7881 216.377C96.7881 226.795 103.783 235.321 112.33 235.321H114.509C124.586 283.961 168.489 320.581 221.121 320.581C273.753 320.581 317.649 283.968 327.733 235.321H329.912C338.459 235.321 345.454 226.795 345.454 216.377C345.454 205.959 338.459 197.432 329.912 197.432Z" fill="#88C057"/>
<path d="M96.7883 216.377C96.7883 205.959 103.784 197.432 112.33 197.432H113.645C121.773 146.449 166.794 107.442 221.121 107.442C223.15 107.442 225.133 107.605 227.128 107.71C224.177 75.0495 206.345 43.8551 176.015 24.8714C129.959 -3.94769 71.1037 5.23986 37.1674 44.1495L36.0549 43.4493C28.8109 38.9145 18.3604 42.4285 12.8308 51.2627C7.30127 60.0969 8.7082 71.0316 15.9588 75.5665L17.8041 76.7248C0.54803 123.31 18.3342 177.631 62.9566 205.553C73.7801 212.326 85.3169 216.959 97.0631 219.642C96.9061 218.576 96.7883 217.489 96.7883 216.377Z" fill="#659C35"/>
<path d="M286.56 192.977C282.941 192.977 280.016 190.046 280.016 186.433C280.016 170.198 266.804 156.986 250.569 156.986C246.95 156.986 244.025 154.054 244.025 150.442C244.025 146.83 246.95 143.898 250.569 143.898C274.022 143.898 293.104 162.98 293.104 186.433C293.104 190.046 290.179 192.977 286.56 192.977Z" fill="#A4E869"/>
<path d="M79.1067 52.2839C77.8372 52.2839 76.5546 51.9175 75.4225 51.1453C72.4385 49.1102 71.6663 45.0399 73.708 42.0494C88.0325 21.0371 117.48 16.0703 139.356 30.9837C142.34 33.0189 143.112 37.0891 141.077 40.0797C139.035 43.0637 134.971 43.8358 131.981 41.8007C116.066 30.9445 94.7857 34.38 84.5184 49.4308C83.2555 51.2827 81.1942 52.2839 79.1067 52.2839Z" fill="#A4E869"/>
</svg>
